<?xml version="1.0" encoding="UTF-8" standalone="no"?>
<!-- Created with Inkscape (http://www.inkscape.org/) -->

<svg
   width="369mm"
   height="224mm"
   viewBox="0 0 369 224"
   version="1.1"
   id="svg4450"
   inkscape:version="1.1.1 (c3084ef, 2021-09-22)"
   sodipodi:docname="internal-backing.svg"
   xmlns:inkscape="http://www.inkscape.org/namespaces/inkscape"
   xmlns:sodipodi="http://sodipodi.sourceforge.net/DTD/sodipodi-0.dtd"
   xmlns="http://www.w3.org/2000/svg"
   xmlns:svg="http://www.w3.org/2000/svg">
  <sodipodi:namedview
     id="namedview4452"
     pagecolor="#ffffff"
     bordercolor="#666666"
     borderopacity="1.0"
     inkscape:pageshadow="2"
     inkscape:pageopacity="0.0"
     inkscape:pagecheckerboard="0"
     inkscape:document-units="mm"
     showgrid="false"
     inkscape:zoom="0.51580387"
     inkscape:cx="648.50231"
     inkscape:cy="290.80821"
     inkscape:window-width="1440"
     inkscape:window-height="900"
     inkscape:window-x="0"
     inkscape:window-y="0"
     inkscape:window-maximized="0"
     inkscape:current-layer="layer1" />
  <defs
     id="defs4447">
    <clipPath
       clipPathUnits="userSpaceOnUse"
       id="clipPath4437">
      <path
         d="M 0,1728 H 3456 V 0 H 0 Z"
         id="path4435" />
    </clipPath>
  </defs>
  <g
     inkscape:label="Layer 1"
     inkscape:groupmode="layer"
     id="layer1">
    <rect
       style="fill:none;stroke:#0000ff;stroke-width:0.354267;stroke-miterlimit:4;stroke-dasharray:none"
       id="rect4533"
       width="368.64575"
       height="223.64574"
       x="0.17713352"
       y="-223.82288"
       transform="scale(1,-1)" />
    <g
       id="g4471"
       transform="matrix(0,0.35277777,0.35277777,0,110.52031,44.077326)"
       style="stroke-width:1;stroke-miterlimit:4;stroke-dasharray:none">
      <path
         d="m 0,0 c 2.219,0 4.018,-1.154 4.018,-2.578 v -37.398 c 0,-1.423 -1.799,-2.578 -4.018,-2.578 h -21.213 c -2.219,0 -4.018,1.155 -4.018,2.578 v 37.398 c 0,1.424 1.799,2.578 4.018,2.578 z"
         style="fill:none;stroke:#ff0000;stroke-width:1;stroke-linecap:round;stroke-linejoin:round;stroke-miterlimit:4;stroke-dasharray:none;stroke-opacity:1"
         id="path4473" />
    </g>
    <g
       id="g4475"
       transform="matrix(0,0.35277777,0.35277777,0,170.93351,44.077326)"
       style="stroke-width:1;stroke-miterlimit:4;stroke-dasharray:none">
      <path
         d="m 0,0 c 2.219,0 4.018,-1.155 4.018,-2.579 v -37.397 c 0,-1.423 -1.799,-2.578 -4.018,-2.578 h -21.213 c -2.219,0 -4.018,1.155 -4.018,2.578 v 37.397 c 0,1.424 1.799,2.579 4.018,2.579 z"
         style="fill:none;stroke:#ff0000;stroke-width:1;stroke-linecap:round;stroke-linejoin:round;stroke-miterlimit:4;stroke-dasharray:none;stroke-opacity:1"
         id="path4477" />
    </g>
    <g
       id="g4479"
       transform="matrix(0,0.35277777,0.35277777,0,231.25783,44.077326)"
       style="stroke-width:1;stroke-miterlimit:4;stroke-dasharray:none">
      <path
         d="m 0,0 c 2.219,0 4.018,-1.154 4.018,-2.578 v -37.397 c 0,-1.424 -1.799,-2.579 -4.018,-2.579 h -21.213 c -2.219,0 -4.018,1.155 -4.018,2.579 v 37.397 c 0,1.424 1.799,2.578 4.018,2.578 z"
         style="fill:none;stroke:#ff0000;stroke-width:1;stroke-linecap:round;stroke-linejoin:round;stroke-miterlimit:4;stroke-dasharray:none;stroke-opacity:1"
         id="path4481" />
    </g>
    <g
       id="g4483"
       transform="matrix(0,3.3856371,0.46648267,0,52.614573,180.83343)"
       style="stroke-width:0.28071347;stroke-miterlimit:4;stroke-dasharray:none">
      <path
         d="m 0,0 c 2.219,0 4.018,-1.155 4.018,-2.579 v -37.397 c 0,-1.423 -1.799,-2.578 -4.018,-2.578 h -21.213 c -2.219,0 -4.018,1.155 -4.018,2.578 v 37.397 c 0,1.424 1.799,2.579 4.018,2.579 z"
         style="fill:none;stroke:#ff0000;stroke-width:0.28071347;stroke-linecap:round;stroke-linejoin:round;stroke-miterlimit:4;stroke-dasharray:none;stroke-opacity:1"
         id="path4485" />
    </g>
    <g
       id="g4487"
       transform="matrix(0,0.35277777,0.35277777,0,110.52031,104.13601)"
       style="stroke-width:1;stroke-miterlimit:4;stroke-dasharray:none">
      <path
         d="m 0,0 c 2.219,0 4.018,-1.154 4.018,-2.578 v -37.398 c 0,-1.423 -1.799,-2.578 -4.018,-2.578 h -21.213 c -2.219,0 -4.018,1.155 -4.018,2.578 v 37.398 c 0,1.424 1.799,2.578 4.018,2.578 z"
         style="fill:none;stroke:#ff0000;stroke-width:1;stroke-linecap:round;stroke-linejoin:round;stroke-miterlimit:4;stroke-dasharray:none;stroke-opacity:1"
         id="path4489" />
    </g>
    <g
       id="g4491"
       transform="matrix(0,0.35277777,0.35277777,0,170.93351,104.13601)"
       style="stroke-width:1;stroke-miterlimit:4;stroke-dasharray:none">
      <path
         d="m 0,0 c 2.219,0 4.018,-1.155 4.018,-2.579 v -37.397 c 0,-1.423 -1.799,-2.578 -4.018,-2.578 h -21.213 c -2.219,0 -4.018,1.155 -4.018,2.578 v 37.397 c 0,1.424 1.799,2.579 4.018,2.579 z"
         style="fill:none;stroke:#ff0000;stroke-width:1;stroke-linecap:round;stroke-linejoin:round;stroke-miterlimit:4;stroke-dasharray:none;stroke-opacity:1"
         id="path4493" />
    </g>
    <g
       id="g4495"
       transform="matrix(0,0.35277777,0.35277777,0,231.25783,104.13601)"
       style="stroke-width:1;stroke-miterlimit:4;stroke-dasharray:none">
      <path
         d="m 0,0 c 2.219,0 4.018,-1.154 4.018,-2.578 v -37.397 c 0,-1.424 -1.799,-2.579 -4.018,-2.579 h -21.213 c -2.219,0 -4.018,1.155 -4.018,2.579 v 37.397 c 0,1.424 1.799,2.578 4.018,2.578 z"
         style="fill:none;stroke:#ff0000;stroke-width:1;stroke-linecap:round;stroke-linejoin:round;stroke-miterlimit:4;stroke-dasharray:none;stroke-opacity:1"
         id="path4497" />
    </g>
    <g
       id="g4931"
       transform="matrix(0,0.35277777,0.35277777,0,50.195274,44.077326)"
       style="stroke-width:1;stroke-miterlimit:4;stroke-dasharray:none">
      <path
         d="m 0,0 c 2.219,0 4.018,-1.154 4.018,-2.578 v -37.398 c 0,-1.423 -1.799,-2.578 -4.018,-2.578 h -21.213 c -2.219,0 -4.018,1.155 -4.018,2.578 v 37.398 c 0,1.424 1.799,2.578 4.018,2.578 z"
         style="fill:none;stroke:#ff0000;stroke-width:1;stroke-linecap:round;stroke-linejoin:round;stroke-miterlimit:4;stroke-dasharray:none;stroke-opacity:1"
         id="path4929" />
    </g>
  </g>
</svg>
